<?xml version="1.0" encoding="UTF-8"?>
<svg width="48px" height="48px" viewBox="0 0 48 48" version="1.1" xmlns="http://www.w3.org/2000/svg" xmlns:xlink="http://www.w3.org/1999/xlink">
    <!-- Generator: Sketch 52.3 (67297) - http://www.bohemiancoding.com/sketch -->
    <title>profile-placeholder</title>
    <desc>Created with Sketch.</desc>
    <defs>
        <polygon id="path-1" points="0.0001 0 48 0 48 47.9998 0.0001 47.9998"></polygon>
    </defs>
    <g id="Icons" stroke="none" stroke-width="1" fill="none" fill-rule="evenodd">
        <g id="Icons-Updated" transform="translate(-186.000000, -273.000000)">
            <g id="Page"></g>
            <g id="Page"></g>
            <g id="Page"></g>
            <g id="profile-placeholder" transform="translate(186.000000, 273.000000)">
                <g id="Group-8">
                    <g id="Group-3">
                        <mask id="mask-2" fill="white">
                            <use xlink:href="#path-1"></use>
                        </mask>
                        <g id="Clip-2"></g>
                        <path d="M48.0001,23.9998 C48.0001,37.2548 37.2551,47.9998 24.0001,47.9998 C10.7451,47.9998 0.0001,37.2548 0.0001,23.9998 C0.0001,10.7448 10.7451,-0.0002 24.0001,-0.0002 C37.2551,-0.0002 48.0001,10.7448 48.0001,23.9998" id="Fill-1" fill="#E8E8E8" mask="url(#mask-2)"></path>
                    </g>
                    <path d="M23.5372,19.6658 C22.2782,18.9948 20.8422,18.6118 19.3162,18.6118 C14.3462,18.6118 10.3162,22.6428 10.3162,27.6118 C10.3162,32.5828 14.3462,36.6118 19.3162,36.6118 C24.2872,36.6118 28.3162,32.5828 28.3162,27.6118 L18.9492,27.6118 L23.5372,19.6658 Z" id="Fill-4" fill="#C6C6C6"></path>
                    <path d="M28.316,11.3875 L23.537,19.6655 C26.379,21.1785 28.316,24.1675 28.316,27.6125 L37.684,27.6125 L28.316,11.3875 Z" id="Fill-6" fill="#C6C6C6"></path>
                </g>
            </g>
        </g>
        <g id="Page"></g>
    </g>
</svg>